<?xml version="1.0" encoding="iso-8859-1"?>
<!-- Generator: Adobe Illustrator 19.0.0, SVG Export Plug-In . SVG Version: 6.00 Build 0)  -->
<svg xmlns="http://www.w3.org/2000/svg" xmlns:xlink="http://www.w3.org/1999/xlink" version="1.1" id="Layer_1" x="0px" y="0px" viewBox="0 0 512 512" style="enable-background:new 0 0 512 512;" xml:space="preserve" width="512px" height="512px">
<g>
	<g>
		<path d="M405.746,199.291c-4.146,0-7.505,3.36-7.505,7.505v258.974H113.76v-92.094c0-4.145-3.36-7.505-7.505-7.505    s-7.505,3.36-7.505,7.505v99.599c0,4.145,3.36,7.505,7.505,7.505h299.491c4.146,0,7.505-3.36,7.505-7.505V206.796    C413.251,202.652,409.891,199.291,405.746,199.291z" fill="#FFFFFF"/>
	</g>
</g>
<g>
	<g>
		<path d="M440.329,46.622h-69.459V35.74c0-4.145-3.359-7.505-7.505-7.505h-65.862C290.881,11.35,274.574,0,256,0    s-34.88,11.35-41.502,28.235h-65.862c-4.145,0-7.505,3.36-7.505,7.505v10.881H71.671c-4.145,0-7.505,3.36-7.505,7.505v450.369    c0,4.145,3.36,7.505,7.505,7.505h368.657c4.146,0,7.505-3.36,7.505-7.505V54.126C447.833,49.982,444.474,46.622,440.329,46.622z     M156.141,43.245h63.834c3.456,0,6.465-2.361,7.289-5.718C230.515,24.27,242.332,15.01,256,15.01    c13.668,0,25.485,9.26,28.736,22.518c0.823,3.357,3.833,5.718,7.289,5.718h63.835v47.324H156.141V43.245z M432.824,496.99H79.176    V61.631h61.955v13.367h-34.877c-4.145,0-7.505,3.36-7.505,7.505V348.66c0,4.145,3.36,7.505,7.505,7.505    c4.145,0,7.505-3.36,7.505-7.505V90.008h27.372v8.066c0,4.145,3.36,7.505,7.505,7.505h214.728c4.146,0,7.505-3.36,7.505-7.505    v-8.066h27.371v91.772c0,4.145,3.359,7.505,7.505,7.505c4.146,0,7.505-3.36,7.505-7.505V82.503c0-4.145-3.359-7.505-7.505-7.505    h-34.876V61.631h61.955V496.99z" fill="#FFFFFF"/>
	</g>
</g>
<g>
	<g>
		<path d="M317.339,154.811c-3.424-2.333-8.093-1.448-10.428,1.976c-2.333,3.425-1.449,8.094,1.977,10.428    c27.333,18.623,44.43,48.595,46.712,81.302l-84.037-0.037l-19.712-0.009l-49.488-77.661l-1.757-2.758l-3.876-6.082    c15.809-8.733,33.573-13.317,51.811-13.317c13.255,0,26.189,2.385,38.444,7.089c3.87,1.485,8.211-0.447,9.695-4.317    c1.485-3.87-0.447-8.21-4.317-9.695c-13.979-5.366-28.723-8.085-43.823-8.085c-23.641,0-46.589,6.761-66.361,19.554    c-3.463,2.24-4.469,6.856-2.252,10.335l4.159,6.527c-27.024,20.261-42.953,51.85-42.953,85.915    c-0.002,33.454,15.185,64.411,41.663,84.935c1.323,1.026,2.942,1.573,4.598,1.573c0.322,0,0.646-0.021,0.97-0.063    c1.982-0.258,3.78-1.297,4.994-2.887l5.779-7.567c14.688,9.597,31.619,14.635,49.402,14.635c47.422,0,86.462-36.63,90.31-83.081    l24.513,0.011c0.001,0,0.002,0,0.003,0c1.989,0,3.898-0.816,5.305-2.222c1.408-1.408,2.199-3.342,2.199-5.333    C370.87,215.467,350.859,177.649,317.339,154.811z M191.614,317.088c-0.001,0.002-0.002,0.004-0.004,0.005l-5.411,7.085    c-19.193-17.497-30.059-41.957-30.059-68.203c0-28.916,13.34-55.764,36.033-73.221l46.411,72.833L191.614,317.088z     M248.539,331.593c-14.455,0-28.232-3.987-40.261-11.594l43.164-56.517l20.524,0.009l51.816,0.023    C319.988,301.683,287.685,331.593,248.539,331.593z" fill="#FFFFFF"/>
	</g>
</g>
<g>
	<g>
		<path d="M351.873,380.535H161.905c-4.145,0-7.505,3.36-7.505,7.505s3.36,7.505,7.505,7.505h189.967    c4.146,0,7.505-3.36,7.505-7.505S356.018,380.535,351.873,380.535z" fill="#FFFFFF"/>
	</g>
</g>
<g>
	<g>
		<path d="M292.883,416.371H161.905c-4.145,0-7.505,3.36-7.505,7.505s3.36,7.505,7.505,7.505h130.978    c4.146,0,7.505-3.36,7.505-7.505S297.029,416.371,292.883,416.371z" fill="#FFFFFF"/>
	</g>
</g>
<g>
</g>
<g>
</g>
<g>
</g>
<g>
</g>
<g>
</g>
<g>
</g>
<g>
</g>
<g>
</g>
<g>
</g>
<g>
</g>
<g>
</g>
<g>
</g>
<g>
</g>
<g>
</g>
<g>
</g>
</svg>
