<svg xmlns="http://www.w3.org/2000/svg" width="30" height="19">
    <path fill="#FFF" fill-rule="evenodd" d="M29.704 16.475c-.037 1.288-3.122 2.334-6.973 2.334s-6.941-1.046-6.973-2.334c-.029-1.149 0-2.917 0-2.917s2.081 1.941 6.973 1.75c4.974-.195 6.973-1.75 6.973-1.75s.033 1.804 0 2.917zm-6.973-2.334c-3.851 0-6.973-1.045-6.973-2.334 0-1.289 3.122-2.334 6.973-2.334s6.973 1.045 6.973 2.334c0 1.289-3.122 2.334-6.973 2.334zM7.723 18.809c-3.851 0-6.941-1.046-6.973-2.334-.029-1.149 0-2.917 0-2.917s2.081 1.941 6.973 1.75c4.974-.195 6.973-1.75 6.973-1.75s.033 1.804 0 2.917c-.037 1.288-3.122 2.334-6.973 2.334zm0-4.335c-3.851 0-6.941-1.045-6.973-2.333-.029-1.15 0-2.918 0-2.918s2.081 1.942 6.973 1.751c4.974-.195 6.973-1.751 6.973-1.751s.033 1.805 0 2.918c-.037 1.288-3.122 2.333-6.973 2.333zm0-4.667C3.872 9.807.782 8.761.75 7.473c-.029-1.149 0-2.917 0-2.917s2.081 1.941 6.973 1.75c4.974-.194 6.973-1.75 6.973-1.75s.033 1.805 0 2.917c-.037 1.288-3.122 2.334-6.973 2.334zm-.004-4.682C3.87 5.125.75 4.083.75 2.797.75 1.511 3.87.469 7.719.469c3.848 0 6.969 1.042 6.969 2.328 0 1.286-3.121 2.328-6.969 2.328z"/>
</svg>
