<?xml version="1.0" encoding="iso-8859-1"?>
<!-- Generator: Adobe Illustrator 19.0.0, SVG Export Plug-In . SVG Version: 6.00 Build 0)  -->
<svg xmlns="http://www.w3.org/2000/svg" xmlns:xlink="http://www.w3.org/1999/xlink" version="1.1" id="Capa_1" x="0px" y="0px" viewBox="0 0 480 480" style="enable-background:new 0 0 480 480;" xml:space="preserve" width="512px" height="512px">
<g>
	<g>
		<path d="M472,192h-24v-24v-32v-32c0-4.424-3.576-8-8-8h-8V72V40V8c0-4.424-3.576-8-8-8H280h-96H40c-4.424,0-8,3.576-8,8v32v32v32    c0,4.424,3.576,8,8,8h8v24v32v24H8c-4.424,0-8,3.576-8,8v240c0,22.056,17.944,40,40,40h400c22.056,0,40-17.944,40-40V200    C480,195.576,476.424,192,472,192z M432,112v16H304v-16h120H432z M304,160v-16h128v16H304z M432,176v16H304v-16H432z M288,16h128    v16H288V16z M288,48h128v16H288V48z M288,80h128v16H296h-8V80z M288,112v24v32v24h-80v-24v-32v-24h72H288z M192,72V40V16h80v24v32    v24h-72h-8V72z M192,112v16H64v-16h120H192z M64,160v-16h128v16H64z M192,176v16H64v-16H192z M48,16h128v16H48V16z M48,48h128v16    H48V48z M48,80h128v16H56h-8V80z M464,440c0,13.232-10.768,24-24,24H40c-13.232,0-24-10.768-24-24v-8h448V440z M464,416H16V208h40    h144h96h144h24V416z" fill="#9fb2bf"/>
	</g>
</g>
<g>
	<g>
		<path d="M240,248c-39.704,0-72,32.296-72,72c0,39.704,32.296,72,72,72c39.704,0,72-32.296,72-72C312,280.296,279.704,248,240,248z     M240,344c-4.416,0-8-3.584-8-8h-16c0,10.416,6.712,19.216,16,22.528v16.832c-27.088-3.904-48-27.208-48-55.36    c0-28.152,20.912-51.456,48-55.36v16.832c-9.288,3.312-16,12.112-16,22.528c0,2.128,0.84,4.16,2.344,5.656l29.152,29.152    C246.352,341.832,243.424,344,240,344z M248,375.36v-16.832c9.288-3.312,16-12.112,16-22.528c0-2.128-0.84-4.16-2.344-5.656    l-29.152-29.152c1.144-3.024,4.072-5.192,7.496-5.192c4.416,0,8,3.584,8,8h16c0-10.416-6.712-19.216-16-22.528V264.64    c27.088,3.904,48,27.208,48,55.36C296,348.152,275.088,371.456,248,375.36z" fill="#9fb2bf"/>
	</g>
</g>
<g>
	<g>
		<rect x="328" y="312" width="40" height="16" fill="#9fb2bf"/>
	</g>
</g>
<g>
	<g>
		<rect x="112" y="312" width="40" height="16" fill="#9fb2bf"/>
	</g>
</g>
<g>
	<g>
		<rect x="312" y="264" width="56" height="16" fill="#9fb2bf"/>
	</g>
</g>
<g>
	<g>
		<rect x="112" y="264" width="56" height="16" fill="#9fb2bf"/>
	</g>
</g>
<g>
	<g>
		<rect x="312" y="360" width="56" height="16" fill="#9fb2bf"/>
	</g>
</g>
<g>
	<g>
		<rect x="112" y="360" width="56" height="16" fill="#9fb2bf"/>
	</g>
</g>
<g>
	<g>
		<path d="M421.656,226.344c-3.128-3.128-8.184-3.128-11.312,0l-32,32l11.312,11.312L408,251.312V336h16v-84.688l18.344,18.344    l11.312-11.312L421.656,226.344z" fill="#9fb2bf"/>
	</g>
</g>
<g>
	<g>
		<path d="M69.656,226.344c-3.128-3.128-8.184-3.128-11.312,0l-32,32l11.312,11.312L56,251.312V336h16v-84.688l18.344,18.344    l11.312-11.312L69.656,226.344z" fill="#9fb2bf"/>
	</g>
</g>
<g>
	<g>
		<rect x="408" y="352" width="16" height="16" fill="#9fb2bf"/>
	</g>
</g>
<g>
	<g>
		<rect x="408" y="384" width="16" height="16" fill="#9fb2bf"/>
	</g>
</g>
<g>
	<g>
		<rect x="56" y="352" width="16" height="16" fill="#9fb2bf"/>
	</g>
</g>
<g>
	<g>
		<rect x="56" y="384" width="16" height="16" fill="#9fb2bf"/>
	</g>
</g>
<g>
</g>
<g>
</g>
<g>
</g>
<g>
</g>
<g>
</g>
<g>
</g>
<g>
</g>
<g>
</g>
<g>
</g>
<g>
</g>
<g>
</g>
<g>
</g>
<g>
</g>
<g>
</g>
<g>
</g>
</svg>
